<?xml version="1.0" encoding="utf-8"?>
<!-- Generator: Adobe Illustrator 23.0.1, SVG Export Plug-In . SVG Version: 6.00 Build 0)  -->
<svg version="1.1" id="Layer_1" xmlns="http://www.w3.org/2000/svg" xmlns:xlink="http://www.w3.org/1999/xlink" x="0px" y="0px"
	 viewBox="0 0 148 147" style="enable-background:new 0 0 148 147;" xml:space="preserve">
<style type="text/css">
	.st0{fill-rule:evenodd;clip-rule:evenodd;fill:#FFFFFF;}
</style>
<path class="st0" d="M72.5,30.1c-23.9,0-43.3,19.4-43.3,43.3c0,19.1,12.5,35.3,29.5,41.1c2.1,0.3,2.9-1,2.9-2.1c0-1.1,0-3.7,0-7.4
	c-12,2.7-14.6-5.8-14.6-5.8c-1.9-5-4.8-6.4-4.8-6.4c-4-2.7,0.3-2.7,0.3-2.7c4.3,0.3,6.7,4.5,6.7,4.5c4,6.7,10.1,4.8,12.5,3.7
	c0.3-2.9,1.6-4.8,2.7-5.8c-9.6-1-19.7-4.8-19.7-21.5c0-4.8,1.6-8.5,4.5-11.7c-0.5-1-1.9-5.6,0.5-11.4c0,0,3.7-1,12,4.5
	c3.4-1,7.2-1.4,10.9-1.4c3.7,0,7.4,0.5,10.9,1.4c8.2-5.6,12-4.5,12-4.5c2.4,5.8,0.8,10.3,0.5,11.4c2.7,2.9,4.5,6.9,4.5,11.7
	c0,16.8-10.1,20.2-19.7,21.2c1.6,1.4,2.9,4,2.9,8c0,5.8,0,10.3,0,12c0,1,0.8,2.4,2.9,2.1C103.8,108.3,116,92.1,116,73
	C115.8,49.5,96.4,30.1,72.5,30.1z"/>
</svg>
