<?xml version="1.0" encoding="utf-8"?>
<!-- Generator: Adobe Illustrator 23.0.1, SVG Export Plug-In . SVG Version: 6.00 Build 0)  -->
<svg version="1.1" id="Layer_1" xmlns="http://www.w3.org/2000/svg" xmlns:xlink="http://www.w3.org/1999/xlink" x="0px" y="0px"
	 viewBox="0 0 212.1 111.6" style="enable-background:new 0 0 212.1 111.6;" xml:space="preserve">
<g>
	<path d="M106,38.7c2.5,0,3.4,0.5,3.4,0.5l1.5-6.2c0,0,1.2,4.8,1.6,9c0.5,4.3,8,1.5,14.5,0.2c6.4-1.3,7.7-11.7,7.7-11.7h59.3
		c0,0-35.8,10.8-26.8,34.7c0,0-52.9-8-61.1,25h0c-8.2-33-61.1-25-61.1-25c9-23.8-26.8-34.7-26.8-34.7h59.3c0,0,1.3,10.3,7.7,11.7
		c6.4,1.3,14,4.1,14.5-0.2c0.5-4.3,1.6-9,1.6-9l1.5,6.2c0,0,1-0.5,3.4-0.5H106L106,38.7z"/>
</g>
</svg>
