<?xml version="1.0" encoding="utf-8"?>
<!-- Generator: Adobe Illustrator 23.0.1, SVG Export Plug-In . SVG Version: 6.00 Build 0)  -->
<svg version="1.1" id="Layer_1" xmlns="http://www.w3.org/2000/svg" xmlns:xlink="http://www.w3.org/1999/xlink" x="0px" y="0px"
	 viewBox="0 0 16 16" style="enable-background:new 0 0 16 16;" xml:space="preserve">
<style type="text/css">
	.st0{fill:#FFFFFF;}
	.st1{fill:#FFE200;}
</style>
<path d="M8.2,3.5c-2.3,0-4.1,1.8-4.1,4.1s1.8,4.1,4.1,4.1s4.1-1.8,4.1-4.1C12.3,5.4,10.5,3.5,8.2,3.5z M8.2,11.6c-2.2,0-4-1.8-4-4
	s1.8-4,4-4s4,1.8,4,4S10.4,11.6,8.2,11.6z"/>
<path class="st0" d="M8.2,11.6c2.2,0,4-1.8,4-4s-1.8-4-4-4s-4,1.8-4,4S6,11.6,8.2,11.6L8.2,11.6L8.2,11.6L8.2,11.6z"/>
<path class="st1" d="M9.3,5.9l2.9-4.4L6.8,6.9c0.4,0,0.8,0,1.2,0c-0.8,1-1.6,1.9-2.4,2.8l1.3,0.1l-3,4.1L9.6,9H8l2.7-3.1
	c-0.5,0-1.2,0-1.7,0l0,0l0,0L9.3,5.9z"/>
<path d="M9.6,5.8l2.7-4.1l-0.1-0.2L10,4.7C9.5,5.4,9.3,5.9,9.3,5.9h0.2l0,0c0,0,0,0,0.1,0c0.4,0,0.7,0,1.1,0L8,9h1.6L8.9,9.6
	l-4.6,3.9l2.5-3.4l0,0l0.1-0.2V9.8L5.6,9.7C6.4,8.9,7.1,8,7.9,7.1c0.1,0-0.1,0,0,0L8,7l0.1-0.1l0,0c-0.4,0-0.8,0-1.3,0l5.4-5.4
	L6.5,6.9l0.2,0l0.1,0.2c0.3,0,0.7,0,1,0C7,8,6.3,8.9,5.5,9.7v0.1l0.2,0l0,0.1l1,0.2l-2.8,3.8L4,14.1l5-4.3l0.8-0.6L9.7,8.9H8.5
	l2.3-2.8L10.7,6l0.1-0.1V5.8h-0.1C10.3,5.8,10,5.8,9.6,5.8z"/>
</svg>
